<svg xmlns="http://www.w3.org/2000/svg" width="100" height="100" viewBox="0 0 100 100">
  <g fill="none" fill-rule="evenodd">
    <rect width="100" height="100" fill="#181920" fill-opacity=".05"/>
    <g opacity=".5" transform="translate(25 25)">
      <polygon points="0 0 50 0 50 50 0 50"/>
      <path fill="#181920" d="M25,22.5 C30.525,22.5 35,18.025 35,12.5 C35,6.975 30.525,2.5 25,2.5 C19.475,2.5 15,6.975 15,12.5 C15,18.025 19.475,22.5 25,22.5 L25,22.5 Z M5,40 L5,45 C5,45 12.5,47.5 25,47.5 C37.5,47.5 45,45 45,45 L45,40 C45,33.35 36.675,27.5 25,27.5 C13.325,27.5 5,33.35 5,40 Z"/>
    </g>
  </g>
</svg>
