<svg xmlns="http://www.w3.org/2000/svg" width="30" height="30" viewBox="0 0 30 30">
  <g fill="none" fill-rule="evenodd">
    <polygon points="0 0 30 0 30 30 0 30"/>
    <path fill="#2D52DA" fill-rule="nonzero" d="M7,9 L7,21 L23,21 L23,9 L7,9 Z M7,7 L23,7 C24.1045695,7 25,7.8954305 25,9 L25,21 C25,22.1045695 24.1045695,23 23,23 L7,23 C5.8954305,23 5,22.1045695 5,21 L5,9 C5,7.8954305 5.8954305,7 7,7 Z M15,13.7981496 L23.4452998,8.16794971 L24.5547002,9.83205029 L15,16.2018504 L5.4452998,9.83205029 L6.5547002,8.16794971 L15,13.7981496 Z"/>
  </g>
</svg>
