<svg xmlns="http://www.w3.org/2000/svg" xmlns:xlink="http://www.w3.org/1999/xlink" width="200" height="200" viewBox="0 0 200 200">
  <defs>
    <path id="pic-1-a" d="M104.64,108 L83.04,43.92 L60.96,108 L104.64,108 Z M102.96,0 L166.08,168 L124.08,168 L113.28,136.56 L52.32,136.56 L41.76,168 L0,168 L62.88,0 L102.96,0 Z"/>
  </defs>
  <g fill="none" fill-rule="evenodd" transform="translate(17 16)">
    <mask id="pic-1-b" fill="#fff">
      <use xlink:href="#pic-1-a"/>
    </mask>
    <path stroke="#181920" stroke-opacity=".1" d="M83.0452008,42.3700927 L105.336181,108.5 L60.2588657,108.5 L83.0452008,42.3700927 Z M102.613731,0.5 L63.2267321,0.5 L0.721017795,167.5 L41.4004889,167.5 L51.9604889,136.06 L113.636922,136.06 L124.436922,167.5 L165.358017,167.5 L102.613731,0.5 Z"/>
    <g mask="url(#pic-1-b)">
      <g transform="translate(-264 -12)">
        <ellipse cx="287.956" cy="95.804" fill="#F1D0D1" rx="91.956" ry="91.804"/>
        <path fill="#0F995E" d="M388.657408,50.8841151 C388.657408,33.2311779 374.323262,18.9206448 356.641197,18.9206448 C338.959132,18.9206448 324.624986,33.2311779 324.624986,50.8841151 L388.657408,50.8841151 Z" transform="rotate(135 356.641 34.902)"/>
        <rect width="395.4" height="23.973" x="-.256" y="86.398" fill="#F8B52B" transform="rotate(8 197.444 98.384)"/>
      </g>
    </g>
  </g>
</svg>
